HIERARCHY
ROOT Hips
{
	OFFSET 0.000000 100.481300 0.000000
	CHANNELS 6 Xposition Yposition Zposition Xrotation Yrotation Zrotation
	JOINT Spine
	{
		OFFSET -0.279200 12.230698 -2.892100
		CHANNELS 3 Xrotation Yrotation Zrotation
		JOINT Spine1
		{
			OFFSET -0.325700 14.269203 -3.374200
			CHANNELS 3 Xrotation Yrotation Zrotation
			JOINT Spine2
			{
				OFFSET -0.372300 16.307602 -0.352600
				CHANNELS 3 Xrotation Yrotation Zrotation
				JOINT Neck
				{
					OFFSET -0.418800 17.814194 8.416900
					CHANNELS 3 Xrotation Yrotation Zrotation
					JOINT Head
					{
						OFFSET 0.000000 7.031097 3.806800
						CHANNELS 3 Xrotation Yrotation Zrotation
						JOINT HeadTop_End
						{
							OFFSET 0.000000 24.646606 12.978600
							CHANNELS 3 Xrotation Yrotation Zrotation
							End Site
							{
								OFFSET 0.000000 27.854965 0.000000
							}
						}
					}
				}
				JOINT LeftShoulder
				{
					OFFSET 16.952999 14.495407 -7.737500
					CHANNELS 3 Xrotation Yrotation Zrotation
					JOINT LeftArm
					{
						OFFSET 9.308998 -2.777710 0.208600
						CHANNELS 3 Xrotation Yrotation Zrotation
						JOINT LeftForeArm
						{
							OFFSET 29.972298 0.000000 0.000000
							CHANNELS 3 Xrotation Yrotation Zrotation
							JOINT LeftHand
							{
								OFFSET 26.026505 0.000000 0.000000
								CHANNELS 3 Xrotation Yrotation Zrotation
								JOINT LeftHandThumb1
								{
									OFFSET 12.240501 -7.147949 9.207150
									CHANNELS 3 Xrotation Yrotation Zrotation
									JOINT LeftHandThumb2
									{
										OFFSET 4.138618 -2.389435 2.389433
										CHANNELS 3 Xrotation Yrotation Zrotation
										JOINT LeftHandThumb3
										{
											OFFSET 2.726913 -1.574387 1.574386
											CHANNELS 3 Xrotation Yrotation Zrotation
											JOINT LeftHandThumb4
											{
												OFFSET 3.941010 -2.275345 2.275342
												CHANNELS 3 Xrotation Yrotation Zrotation
												End Site
												{
													OFFSET -0.005798 5.087799 0.009903
												}
											}
										}
									}
								}
								JOINT LeftHandIndex1
								{
									OFFSET 24.424698 -1.985611 5.953459
									CHANNELS 3 Xrotation Yrotation Zrotation
									JOINT LeftHandIndex2
									{
										OFFSET 6.426697 0.000000 0.000000
										CHANNELS 3 Xrotation Yrotation Zrotation
										JOINT LeftHandIndex3
										{
											OFFSET 5.337898 0.000000 0.000000
											CHANNELS 3 Xrotation Yrotation Zrotation
											JOINT LeftHandIndex4
											{
												OFFSET 4.409401 0.000000 0.000000
												CHANNELS 3 Xrotation Yrotation Zrotation
												End Site
												{
													OFFSET 0.000000 4.409363 0.014373
												}
											}
										}
									}
								}
								JOINT LeftHandMiddle1
								{
									OFFSET 23.810104 0.000000 0.000000
									CHANNELS 3 Xrotation Yrotation Zrotation
									JOINT LeftHandMiddle2
									{
										OFFSET 7.176498 0.000000 0.000000
										CHANNELS 3 Xrotation Yrotation Zrotation
										JOINT LeftHandMiddle3
										{
											OFFSET 6.774902 0.000000 0.000000
											CHANNELS 3 Xrotation Yrotation Zrotation
											JOINT LeftHandMiddle4
											{
												OFFSET 5.403328 0.000000 0.000000
												CHANNELS 3 Xrotation Yrotation Zrotation
												End Site
												{
													OFFSET -0.027702 5.403244 0.017414
												}
											}
										}
									}
								}
								JOINT LeftHandRing1
								{
									OFFSET 22.908401 -0.839279 -6.020567
									CHANNELS 3 Xrotation Yrotation Zrotation
									JOINT LeftHandRing2
									{
										OFFSET 6.337502 0.000000 0.000000
										CHANNELS 3 Xrotation Yrotation Zrotation
										JOINT LeftHandRing3
										{
											OFFSET 5.779297 0.000000 0.000000
											CHANNELS 3 Xrotation Yrotation Zrotation
											JOINT LeftHandRing4
											{
												OFFSET 4.965698 0.000000 0.000000
												CHANNELS 3 Xrotation Yrotation Zrotation
												End Site
												{
													OFFSET 0.000000 4.965668 0.016186
												}
											}
										}
									}
								}
								JOINT LeftHandPinky1
								{
									OFFSET 20.037003 -1.530319 -10.950146
									CHANNELS 3 Xrotation Yrotation Zrotation
									JOINT LeftHandPinky2
									{
										OFFSET 5.254700 0.000000 0.000000
										CHANNELS 3 Xrotation Yrotation Zrotation
										JOINT LeftHandPinky3
										{
											OFFSET 4.810204 0.000000 0.000000
											CHANNELS 3 Xrotation Yrotation Zrotation
											JOINT LeftHandPinky4
											{
												OFFSET 3.647202 0.000000 0.000000
												CHANNELS 3 Xrotation Yrotation Zrotation
												End Site
												{
													OFFSET 0.000000 3.647186 0.011889
												}
											}
										}
									}
								}
							}
						}
					}
				}
				JOINT RightShoulder
				{
					OFFSET -15.141001 14.495407 -7.737500
					CHANNELS 3 Xrotation Yrotation Zrotation
					JOINT RightArm
					{
						OFFSET -9.308998 -2.777710 0.208500
						CHANNELS 3 Xrotation Yrotation Zrotation
						JOINT RightForeArm
						{
							OFFSET -29.972300 0.000000 0.000000
							CHANNELS 3 Xrotation Yrotation Zrotation
							JOINT RightHand
							{
								OFFSET -26.026505 0.000000 0.000000
								CHANNELS 3 Xrotation Yrotation Zrotation
								JOINT RightHandThumb1
								{
									OFFSET -12.240601 -7.148026 9.207092
									CHANNELS 3 Xrotation Yrotation Zrotation
									JOINT RightHandThumb2
									{
										OFFSET -4.138618 -2.389435 2.389433
										CHANNELS 3 Xrotation Yrotation Zrotation
										JOINT RightHandThumb3
										{
											OFFSET -2.726974 -1.574417 1.574421
											CHANNELS 3 Xrotation Yrotation Zrotation
											JOINT RightHandThumb4
											{
												OFFSET -3.941010 -2.275345 2.275343
												CHANNELS 3 Xrotation Yrotation Zrotation
												End Site
												{
													OFFSET 0.005814 5.087799 0.009927
												}
											}
										}
									}
								}
								JOINT RightHandIndex1
								{
									OFFSET -24.424698 -1.985657 5.953444
									CHANNELS 3 Xrotation Yrotation Zrotation
									JOINT RightHandIndex2
									{
										OFFSET -6.426697 0.000000 0.000000
										CHANNELS 3 Xrotation Yrotation Zrotation
										JOINT RightHandIndex3
										{
											OFFSET -5.337898 0.000000 0.000000
											CHANNELS 3 Xrotation Yrotation Zrotation
											JOINT RightHandIndex4
											{
												OFFSET -4.409401 0.000000 0.000000
												CHANNELS 3 Xrotation Yrotation Zrotation
												End Site
												{
													OFFSET 0.000000 4.409363 0.014408
												}
											}
										}
									}
								}
								JOINT RightHandMiddle1
								{
									OFFSET -23.810097 0.000000 0.000000
									CHANNELS 3 Xrotation Yrotation Zrotation
									JOINT RightHandMiddle2
									{
										OFFSET -7.176498 0.000000 0.000000
										CHANNELS 3 Xrotation Yrotation Zrotation
										JOINT RightHandMiddle3
										{
											OFFSET -6.774902 0.000000 0.000000
											CHANNELS 3 Xrotation Yrotation Zrotation
											JOINT RightHandMiddle4
											{
												OFFSET -5.403328 0.000000 0.000000
												CHANNELS 3 Xrotation Yrotation Zrotation
												End Site
												{
													OFFSET 0.027702 5.403244 0.017457
												}
											}
										}
									}
								}
								JOINT RightHandRing1
								{
									OFFSET -22.908302 -0.839325 -6.020576
									CHANNELS 3 Xrotation Yrotation Zrotation
									JOINT RightHandRing2
									{
										OFFSET -6.337502 0.000000 0.000000
										CHANNELS 3 Xrotation Yrotation Zrotation
										JOINT RightHandRing3
										{
											OFFSET -5.779297 0.000000 0.000000
											CHANNELS 3 Xrotation Yrotation Zrotation
											JOINT RightHandRing4
											{
												OFFSET -4.965698 0.000000 0.000000
												CHANNELS 3 Xrotation Yrotation Zrotation
												End Site
												{
													OFFSET 0.000000 4.965668 0.016226
												}
											}
										}
									}
								}
								JOINT RightHandPinky1
								{
									OFFSET -20.037003 -1.530334 -10.950259
									CHANNELS 3 Xrotation Yrotation Zrotation
									JOINT RightHandPinky2
									{
										OFFSET -5.254700 0.000000 0.000000
										CHANNELS 3 Xrotation Yrotation Zrotation
										JOINT RightHandPinky3
										{
											OFFSET -4.810204 0.000000 0.000000
											CHANNELS 3 Xrotation Yrotation Zrotation
											JOINT RightHandPinky4
											{
												OFFSET -3.647202 0.000000 0.000000
												CHANNELS 3 Xrotation Yrotation Zrotation
												End Site
												{
													OFFSET 0.000000 3.647186 0.011917
												}
											}
										}
									}
								}
							}
						}
					}
				}
			}
		}
	}
	JOINT LeftUpLeg
	{
		OFFSET 15.427100 -6.655098 0.678600
		CHANNELS 3 Xrotation Yrotation Zrotation
		JOINT LeftLeg
		{
			OFFSET 4.081073 -39.591068 13.024000
			CHANNELS 3 Xrotation Yrotation Zrotation
			JOINT LeftFoot
			{
				OFFSET -4.081074 -37.707932 -15.979700
				CHANNELS 3 Xrotation Yrotation Zrotation
				JOINT LeftToeBase
				{
					OFFSET 5.346399 -15.068900 20.645000
					CHANNELS 3 Xrotation Yrotation Zrotation
					JOINT LeftToe_End
					{
						OFFSET 2.754700 0.931300 11.300900
						CHANNELS 3 Xrotation Yrotation Zrotation
						End Site
						{
							OFFSET 0.000000 11.669021 0.000000
						}
					}
				}
			}
		}
	}
	JOINT RightUpLeg
	{
		OFFSET -15.569500 -6.655098 0.678600
		CHANNELS 3 Xrotation Yrotation Zrotation
		JOINT RightLeg
		{
			OFFSET -4.081825 -39.591045 13.023800
			CHANNELS 3 Xrotation Yrotation Zrotation
			JOINT RightFoot
			{
				OFFSET 4.081824 -37.707954 -15.979600
				CHANNELS 3 Xrotation Yrotation Zrotation
				JOINT RightToeBase
				{
					OFFSET -5.346400 -15.068900 20.645000
					CHANNELS 3 Xrotation Yrotation Zrotation
					JOINT RightToe_End
					{
						OFFSET -2.754700 0.931300 11.300900
						CHANNELS 3 Xrotation Yrotation Zrotation
						End Site
						{
							OFFSET 0.000000 11.669021 0.000000
						}
					}
				}
			}
		}
	}
}
MOTION
Frames: 4
Frame Time: 0.033333
0.819684 92.250229 -0.977355 -3.364847 3.422274 -2.657309 5.827052 0.451401 3.889633 0.649283 0.095946 0.232591 0.649490 0.091570 0.232878 -0.992147 -0.419270 0.071885 -2.760272 -3.991074 -2.345398 0.000000 -0.000000 -0.000000 0.547211 -3.989821 -18.466977 2.383855 -9.415212 -62.125557 0.000004 -8.283930 0.000021 9.973581 -3.848865 4.866711 -2.832631 -1.477326 13.645918 19.240303 19.690206 -6.942276 -18.674296 -19.016128 13.024320 0.000001 -0.000002 0.000000 -0.860245 2.184284 -28.931548 0.745542 2.861855 -29.197508 0.245034 1.678215 -16.612909 0.000001 0.000003 0.000000 1.505379 6.216123 -38.017834 0.846948 3.036006 -31.168680 0.373260 2.059500 -20.543225 0.000001 0.000003 -0.000000 4.144540 9.374827 -39.505913 1.451755 3.861395 -41.196808 0.221122 1.595905 -15.775924 0.000000 -0.000000 -0.000001 1.991617 7.120097 -36.160398 0.708869 2.795306 -28.454435 0.345396 1.983610 -19.753407 0.000002 0.000001 0.000001 0.813594 0.322052 17.894541 -1.770080 8.120490 61.368758 0.000001 15.459662 -0.000008 -0.345416 5.512377 -4.035079 -8.879573 4.825545 -8.712527 17.703299 -27.978910 -1.443642 -5.739864 17.590316 -12.555331 -0.000001 0.000000 -0.000000 -0.329054 -2.295702 22.502203 1.145053 -3.060393 41.019278 0.241772 -1.482508 18.523734 -0.000000 0.000001 -0.000001 1.411811 -5.682540 35.397920 0.992228 -2.875542 38.068387 0.150524 -1.175681 14.591366 -0.000000 -0.000003 -0.000002 3.805725 -8.246653 41.741482 0.788872 -2.595335 33.809211 0.206827 -1.373863 17.121869 -0.000000 -0.000001 -0.000000 1.189438 -5.348049 44.678801 1.008058 -2.895616 38.382699 0.474656 -2.050186 26.068179 0.000001 -0.000002 0.000000 -22.700433 1.943468 4.264792 47.504758 3.355219 -0.045348 4.693056 -0.619920 -3.178865 -18.956372 -0.639643 1.899318 0.000001 0.000000 -0.000000 -3.945937 -10.451548 3.035013 21.625192 -1.176592 3.574943 -13.893568 -0.130771 -4.708749 -3.137041 0.000001 -0.000000 -0.000000 -0.000000 -0.000000 
0.646168 93.174622 5.184597 -2.462741 2.004163 -1.129329 5.372360 1.788642 2.093386 0.626693 0.441245 0.082922 0.627679 0.437113 0.080876 -1.027126 -0.489458 0.048556 -3.232408 -4.326097 -2.508607 -0.000000 0.000000 0.000000 0.596141 -3.355362 -18.536899 5.421114 -7.502976 -63.298034 0.000005 -7.984331 0.000016 13.325012 -2.825497 3.801343 -2.832633 -1.477326 13.645918 19.298730 19.813344 -7.021466 -18.951781 -19.420603 13.366331 0.000001 0.000000 0.000003 -0.769468 2.379872 -30.468613 0.804372 2.964559 -30.355191 0.274572 1.774152 -17.593381 0.000001 -0.000001 0.000001 1.546566 6.258384 -39.144757 0.902741 3.126245 -32.206674 0.414583 2.166515 -21.664074 0.000000 0.000000 -0.000000 4.297438 9.410914 -40.754946 1.513492 3.930635 -42.105374 0.249761 1.693954 -16.773548 -0.000001 0.000001 0.000001 2.055566 7.193042 -37.316940 0.745652 2.862061 -29.199793 0.379547 2.076191 -20.717451 0.000000 0.000000 0.000000 0.790733 0.543636 17.622346 -3.354161 11.547109 60.444381 -0.000002 18.814081 -0.000011 -2.845413 7.688555 -3.667250 -8.879570 4.825544 -8.712529 17.742292 -28.022958 -1.406927 -5.763080 17.859551 -12.815870 0.000002 0.000001 0.000000 -0.371541 -2.170194 22.366974 1.150623 -3.066765 41.123401 0.242163 -1.483662 18.538650 0.000001 -0.000000 0.000000 1.297349 -5.521811 35.424400 1.001393 -2.887193 38.250668 0.152210 -1.182122 14.673157 -0.000001 0.000000 0.000001 3.721757 -8.145896 41.818455 0.797737 -2.608510 34.004582 0.208969 -1.380796 17.211020 0.000001 0.000000 0.000000 1.066302 -5.224536 44.723525 1.009374 -2.897271 38.408828 0.479233 -2.059513 26.195876 0.000000 -0.000001 0.000001 -26.141639 2.797196 2.719850 38.980883 5.431358 -0.472986 3.349385 -0.414114 -3.355937 -3.299391 -0.074013 1.720359 0.000000 0.000000 -0.000000 0.502361 -10.496419 2.427294 19.378010 0.122839 3.077281 -16.887539 0.212828 -5.781992 -4.116133 -0.000003 -0.000002 -0.000000 0.000000 0.000000 
0.573747 94.064629 10.683544 -1.662887 0.678810 0.439261 5.151798 2.837396 0.340105 0.619420 0.733413 -0.019322 0.620774 0.729296 -0.023256 -1.112289 -0.516803 0.004785 -3.778959 -4.272620 -2.725686 0.000000 -0.000000 0.000000 0.650162 -2.671394 -18.684843 8.263760 -4.895501 -64.527215 -0.000003 -7.649666 -0.000017 16.067754 -2.374219 3.580078 -2.832628 -1.477326 13.645915 19.369327 19.960678 -7.116783 -19.180192 -19.777952 13.667057 -0.000001 -0.000000 -0.000003 -0.655842 2.592244 -32.022334 0.864074 3.064076 -31.490485 0.310321 1.883123 -18.713697 -0.000001 -0.000001 -0.000001 1.581591 6.293178 -40.300879 0.961034 3.216782 -33.260163 0.458238 2.273247 -22.790892 -0.000000 0.000001 0.000000 4.473417 9.474733 -41.945387 1.572786 3.995122 -42.963375 0.281407 1.795545 -17.812828 -0.000001 -0.000000 0.000000 2.121454 7.267653 -38.444925 0.785419 2.932006 -29.986644 0.415222 2.168099 -21.680795 0.000001 0.000001 -0.000000 0.761736 0.867997 17.337971 -4.698299 14.783091 59.363633 -0.000006 22.189483 0.000032 -3.880721 9.691836 -3.949777 -8.879570 4.825545 -8.712530 18.067517 -28.376241 -1.120882 -5.827308 18.347712 -13.191663 -0.000002 0.000003 0.000000 -0.400168 -2.061634 22.275352 1.166365 -3.084698 41.416846 0.249493 -1.505344 18.819821 0.000002 0.000001 0.000001 1.190240 -5.367731 35.730222 1.015197 -2.904582 38.523954 0.158672 -1.206512 14.982990 -0.000001 0.000000 -0.000001 3.578209 -7.969331 42.011466 0.815109 -2.634063 34.384566 0.214813 -1.399507 17.451787 -0.000001 -0.000001 -0.000000 0.935729 -5.098925 45.071411 1.019491 -2.909965 38.608413 0.488715 -2.078671 26.458609 0.000002 0.000000 0.000000 -27.944583 3.802823 1.612368 28.454030 9.002702 -0.561274 2.492957 -0.055421 -3.309912 -0.567402 -0.000003 0.000001 0.000000 0.000000 -0.000000 4.982530 -10.639729 1.706430 16.197869 1.045816 2.492951 -19.229918 0.657158 -7.168522 -7.001319 -0.000002 0.000000 0.000000 -0.000000 0.000000 
0.548404 95.092720 15.938615 -1.072259 0.046470 1.700562 5.068657 3.399776 -1.045585 0.625222 0.923735 -0.034808 0.627114 0.919365 -0.040057 -1.196496 -0.561019 -0.017477 -4.178015 -4.446921 -2.908890 0.000000 0.000000 0.000000 0.686964 -2.240905 -18.977119 10.841376 -2.167139 -65.611951 -0.000000 -7.109126 -0.000020 17.198855 -1.874791 3.606630 -2.832633 -1.477326 13.645917 19.338661 19.896843 -7.075469 -18.886001 -19.366301 13.333214 0.000002 -0.000001 -0.000004 -0.497270 2.760262 -32.605793 0.924389 3.160292 -32.601347 0.356094 2.013124 -20.060127 -0.000000 -0.000001 -0.000002 1.708262 6.435249 -40.979998 1.021917 3.307595 -34.330074 0.499404 2.368767 -23.807487 0.000001 0.000002 -0.000000 4.688249 9.633678 -42.602438 1.622642 4.047858 -43.674333 0.312516 1.889585 -18.780450 0.000001 -0.000000 -0.000000 2.201003 7.398217 -39.008867 0.830005 3.007833 -30.847057 0.447307 2.247062 -22.513818 -0.000001 -0.000001 -0.000000 0.737941 1.177126 17.186745 -5.932848 17.407031 58.153330 -0.000009 25.206079 0.000000 -4.028050 11.060921 -4.505883 -8.879571 4.825542 -8.712529 18.268885 -28.591090 -0.944233 -5.870879 18.859090 -13.639201 0.000001 -0.000002 0.000004 -0.407009 -2.030780 22.605483 1.190933 -3.112261 41.871314 0.261505 -1.540145 19.272026 -0.000002 0.000001 0.000000 1.179336 -5.347372 36.164209 1.031632 -2.925080 38.846848 0.167927 -1.240548 15.416225 -0.000002 -0.000002 0.000001 3.550648 -7.909749 42.344581 0.837080 -2.665816 34.859243 0.225167 -1.431996 17.870700 0.000002 0.000001 -0.000001 0.881846 -5.050924 45.366912 1.037308 -2.932105 38.958173 0.503500 -2.108082 26.863045 0.000001 -0.000000 0.000001 -27.854157 4.491880 -0.179583 15.131774 9.557344 -0.110977 2.281838 3.102269 -2.134404 0.276408 -0.000002 -0.000001 0.000001 -0.000001 -0.000000 10.231266 -11.003722 0.957027 11.313415 1.612081 2.215551 -19.882182 0.736359 -7.187829 -8.945978 0.000002 0.000002 -0.000000 -0.000001 -0.000000 
